<svg width="29" height="32" viewBox="0 0 29 32" fill="none" xmlns="http://www.w3.org/2000/svg">
<path d="M14.5 0L28.5 8V24L14.5 32L0.5 24V8L14.5 0Z" fill="white"/>
<path fill-rule="evenodd" clip-rule="evenodd" d="M14.4623 8.76307C14.4856 8.75026 14.5144 8.75026 14.5377 8.76307L22.5668 13.6264C22.5902 13.6392 22.6045 13.6629 22.6045 13.6885V30.6132C22.6045 30.6528 22.5708 30.685 22.5292 30.685H19.4185C19.3769 30.685 19.3431 30.6528 19.3431 30.6132V22.8238C19.3431 22.7686 19.2803 22.7341 19.2301 22.7617L14.5377 25.3407C14.5144 25.3535 14.4856 25.3535 14.4623 25.3407L9.76993 22.7617C9.71968 22.7341 9.65687 22.7686 9.65686 22.8238V30.6132C9.65686 30.6528 9.62311 30.685 9.58148 30.685H6.47085C6.42922 30.685 6.39547 30.6528 6.39547 30.6132V13.6885C6.39547 13.6629 6.40984 13.6392 6.43316 13.6264L14.4623 8.76307ZM14.5377 12.249C14.5144 12.2362 14.4856 12.2362 14.4623 12.249L9.69455 14.8694C9.67123 14.8823 9.65686 14.906 9.65686 14.9316V20.1722C9.65686 20.1978 9.67123 20.2215 9.69455 20.2343L14.4623 22.8547C14.4856 22.8675 14.5144 22.8675 14.5377 22.8547L19.3055 20.2343C19.3288 20.2215 19.3431 20.1978 19.3431 20.1722V14.9316C19.3431 14.906 19.3288 14.8823 19.3055 14.8694L14.5377 12.249Z" fill="#001735"/>
</svg>
